<?xml version="1.0" encoding="iso-8859-1"?>
<!-- Generator: Adobe Illustrator 19.0.0, SVG Export Plug-In . SVG Version: 6.00 Build 0)  -->
<svg version="1.1" id="Capa_1" xmlns="http://www.w3.org/2000/svg" xmlns:xlink="http://www.w3.org/1999/xlink" x="0px" y="0px"
	 viewBox="0 0 512.003 512.003" style="enable-background:new 0 0 512.003 512.003;" xml:space="preserve">
<g>
	<path style="fill:#FF8D8D;" d="M64.916,157.863c45.104-17.912,113.948-29.357,191.085-29.357s145.982,11.446,191.085,29.357
		c34.338-10.745,54.916-24.444,54.916-39.363c0-34.517-110.139-62.498-246.001-62.498S10,83.982,10,118.5
		C10,133.419,30.578,147.117,64.916,157.863z"/>
	<path style="fill:#FD4A4A;" d="M216.001,180.233c-39.339-1.549-79.257-5.621-117.451-13.713
		c-12.282-2.603-23.551-5.503-33.634-8.658C30.578,147.117,10,133.419,10,118.5v57.997v48.133
		c0,31.056,89.162,56.822,206.001,61.676V180.233z"/>
	<path style="fill:#FFA655;" d="M216.001,180.233v106.072c13.019,0.541,26.38,0.822,40,0.822c0.006,0,0.011,0,0.017,0
		c13.615,0,26.971-0.281,39.983-0.822v-106.08c-13.465,0.534-26.837,0.771-40,0.771
		C242.797,180.997,229.433,180.762,216.001,180.233z"/>
	<g>
		<path style="fill:#FD4A4A;" d="M296.001,180.226v106.08c22.976-0.955,44.882-2.718,65.25-5.17
			c54.857-9.065,56.89-102.766-3.581-105.602C337.168,177.92,316.477,179.415,296.001,180.226z"/>
		<path style="fill:#FD4A4A;" d="M357.67,175.532c60.471,2.837,58.438,96.538,3.581,105.602c6.171-0.744,12.201-1.55,18.077-2.417
			c73.35-10.818,122.674-30.99,122.674-54.088v-106.13c0,14.919-20.578,28.618-54.916,39.363
			c-9.814,3.071-20.752,5.901-32.656,8.449C395.897,170.28,376.866,173.297,357.67,175.532z"/>
	</g>
	<path style="fill:#FEC478;" d="M256.001,406.002c-11.045,0-20-8.955-20-20c0-11.046,8.955-20,20-20c11.046,0,20,8.954,20,20
		C276.001,397.047,267.047,406.002,256.001,406.002L256.001,406.002z M326.002,385.894c-0.059-38.61-31.377-69.893-70.001-69.893
		c-38.659,0-70,31.34-70,70.001c0,38.659,31.341,70,70,70c38.66,0,70.001-31.341,70.001-70
		C326.002,385.966,326.002,385.93,326.002,385.894z"/>
	<circle style="fill:#9D7463;" cx="256" cy="386.001" r="20"/>
</g>
<path d="M432.412,64.615c-47.245-12.002-109.896-18.613-176.411-18.613S126.835,52.612,79.59,64.615C26.778,78.032,0,96.161,0,118.5
	v58.043c0,0.022,0,0.043,0,0.065v48.021c0,22.338,26.778,40.467,79.59,53.885c44.872,11.399,103.644,17.931,166.422,18.559
	l-0.006,9.575c-36.13,4.526-64.829,33.225-69.357,69.354h-1.859c-5.522,0-10,4.477-10,10s4.478,10,10,10h1.859
	c4.939,39.406,38.629,70,79.353,70c40.761,0,74.476-30.649,79.367-70.108h1.845c5.523,0,10-4.477,10-10s-4.477-10-10-10h-1.872
	c-4.571-36.075-33.245-64.718-69.335-69.245l0.006-9.579c10.065-0.103,20.074-0.357,29.971-0.766c0.006,0,0.012,0.001,0.018,0.001
	c0.045,0,0.089-0.006,0.134-0.007c22.791-0.945,44.968-2.695,65.858-5.193c0.295-0.022,0.591-0.056,0.888-0.104
	c0.012-0.002,0.023-0.005,0.036-0.007c6.068-0.733,12.04-1.523,17.87-2.383c49.005-7.228,131.215-25.15,131.215-63.982v-106.13
	C512.002,96.161,485.224,78.032,432.412,64.615z M20,224.63v-32.017c18.782,8.722,39.739,16.285,62.536,22.545
	c0.886,0.243,1.776,0.359,2.653,0.359c4.392,0,8.418-2.915,9.637-7.355c1.463-5.326-1.669-10.828-6.995-12.291
	c-25.235-6.929-48.016-15.489-67.831-25.47v-21.756c11.157,7.576,25.954,13.722,41.669,18.667c0.145,0.05,0.291,0.095,0.438,0.138
	c11.331,3.545,23.126,6.47,34.37,8.852c33.327,7.061,69.487,11.516,109.523,13.495v86.029
	c-45.776-2.413-87.777-8.133-121.486-16.697C33.588,246.192,20,231.356,20,224.63z M392.599,223.028
	c1.347,20.953-9.454,44.166-32.686,48.184c-17.19,2.063-35.291,3.605-53.911,4.595v-86.044c17.933-0.902,35.188-2.303,51.72-4.201
	C381.716,186.955,391.486,205.721,392.599,223.028z M357.039,165.515c-0.795-0.003-1.568,0.086-2.313,0.26
	c-30.441,3.462-63.441,5.221-98.726,5.221c-59.266,0-110.09-4.664-155.379-14.259c-0.056-0.012-0.109-0.024-0.164-0.036
	c43.039-11.689,97.748-18.197,155.543-18.197c57.789,0,112.493,6.506,155.53,18.193C394.463,160.324,376.27,163.264,357.039,165.515
	z M256.006,396.002c-0.002,0-0.003-0.001-0.005-0.001c-0.002,0-0.003,0.001-0.005,0.001c-5.512-0.003-9.995-4.487-9.995-10
	c0-5.514,4.486-10,10-10s10,4.486,10,10C266.001,391.515,261.518,395.999,256.006,396.002z M315.133,375.894h-8.525
	c-5.523,0-10,4.477-10,10s4.477,10,10,10h8.564c-4.189,25.135-24.05,45.025-49.171,49.259v-30.871c11.639-4.128,20-15.244,20-28.28
	c0-16.542-13.458-30-30-30s-30,13.458-30,30c0,13.036,8.361,24.152,20,28.28v30.871c-25.084-4.228-44.923-24.066-49.15-49.15h8.544
	c5.522,0,10-4.477,10-10s-4.478-10-10-10h-8.544c4.775-28.336,29.469-49.995,59.14-50c0.002,0,0.004,0,0.005,0
	c0.002,0,0.004,0,0.006,0c0.002,0,0.004,0,0.007,0C285.644,326.005,310.313,347.61,315.133,375.894z M256.046,237.588
	c-0.002,0-0.004,0-0.006,0c-5.52,0-9.997,4.474-10,9.994l-0.017,29.491c-6.728-0.068-13.408-0.202-20.022-0.407v-86.094
	c9.774,0.275,19.756,0.424,30,0.424c10.188,0,20.18-0.155,30-0.441v86.096c-6.621,0.208-13.285,0.348-19.978,0.418l0.017-29.475
	C266.043,242.071,261.568,237.591,256.046,237.588z M492.002,224.63c0,9.872-24.493,27.675-90.05,40.148
	c7.825-12.385,11.595-27.646,10.605-43.033c-0.974-15.144-6.957-30.537-18.286-41.389c7.597-1.308,15.031-2.72,22.252-4.266
	c10.903-2.335,22.331-5.186,33.338-8.629c0.104-0.03,0.205-0.065,0.307-0.098c15.754-4.948,30.626-11.113,41.834-18.724
	L492.002,224.63L492.002,224.63z M447.339,147.242c-48.021-18.282-117.442-28.736-191.338-28.736
	c-73.926,0-143.374,10.463-191.396,28.758C30.174,135.958,20,124.184,20,118.5c0-6.727,13.588-21.563,64.515-34.5
	c45.682-11.606,106.583-17.997,171.486-17.997S381.806,72.394,427.487,84c50.927,12.938,64.515,27.774,64.515,34.5
	C492.002,126.122,477.806,137.219,447.339,147.242z"/>
<path d="M115.853,202.631l-0.241-0.051c-5.409-1.114-10.666,2.374-11.78,7.784c-1.114,5.409,2.397,10.702,7.806,11.817
	c0.711,0.153,1.419,0.227,2.117,0.227c4.608,0,8.754-3.205,9.766-7.893C124.684,209.116,121.251,203.795,115.853,202.631z"/>
<g>
</g>
<g>
</g>
<g>
</g>
<g>
</g>
<g>
</g>
<g>
</g>
<g>
</g>
<g>
</g>
<g>
</g>
<g>
</g>
<g>
</g>
<g>
</g>
<g>
</g>
<g>
</g>
<g>
</g>
</svg>
