<svg height="512pt" viewBox="-9 0 512 512.00026" width="512pt" xmlns="http://www.w3.org/2000/svg"><path d="m279.5625 327.320312c0 15.171876-12.300781 27.472657-27.472656 27.472657s-27.46875-12.300781-27.46875-27.472657c0-15.171874 12.296875-27.46875 27.46875-27.46875s27.472656 12.296876 27.472656 27.46875zm0 0" fill="#a0634a"/><path d="m494.542969 327.320312c0 15.171876-12.300781 27.472657-27.472657 27.472657-15.171874 0-27.46875-12.300781-27.46875-27.472657 0-15.171874 12.296876-27.46875 27.46875-27.46875 15.171876 0 27.472657 12.296876 27.472657 27.46875zm0 0" fill="#a0634a"/><path d="m443.914062 381.386719c-21.210937-36.738281-60.9375-63.753907-97.558593-55.765625-26.429688 5.246094-53.511719 25.292968-71.105469 55.765625-27.542969 47.703125-21.386719 102.820312 13.75 123.105469 16.914062 9.765624 37.460938 9.675781 57.296875 1.636718 8.503906-3.449218 18.066406-3.449218 26.570313 0 19.832031 8.039063 40.378906 8.132813 57.292968-1.636718 35.136719-20.285157 41.292969-75.402344 13.753906-123.105469zm0 0" fill="#a0634a"/><path d="m295.222656 381.386719c16.222656-28.101563 43.328125-51.410157 74.339844-56.371094-35.753906-5.710937-73.605469 20.503906-94.3125 56.371094-27.542969 47.703125-21.386719 102.820312 13.75 123.105469 11.734375 6.777343 25.214844 8.804687 38.992188 6.726562-49.894532-8.070312-65.503907-73.136719-32.769532-129.832031zm0 0" fill="#915039"/><path d="m351.199219 393.886719c-16.75 3.324219-33.910157 16.03125-45.0625 35.339843-20.609375 35.699219-11.007813 76.722657 20.320312 82.1875 6.585938-.84375 13.25-2.617187 19.835938-5.285156 8.503906-3.449218 18.070312-3.449218 26.574219 0 6.585937 2.667969 13.25 4.441406 19.835937 5.285156 4.0625-.707031 7.96875-2.070312 11.605469-4.171874 22.265625-12.855469 26.167968-47.78125 8.714844-78.015626-13.441407-23.285156-38.621094-40.398437-61.824219-35.339843zm0 0" fill="#915039"/><path d="m326.109375 429.226562c10.824219-18.75 27.320313-31.246093 43.601563-34.996093-6.140626-1.457031-12.394532-1.675781-18.511719-.339844-16.746094 3.320313-33.910157 16.027344-45.058594 35.335937-20.625 35.71875-10.988281 76.726563 20.316406 82.191407 3.898438-.503907 7.820313-1.335938 11.738281-2.476563-25.097656-11.015625-30.457031-47.890625-12.085937-79.714844zm0 0" fill="#7f4330"/><path d="m439.90625 265.082031c0 18.398438-14.914062 33.3125-33.3125 33.3125s-33.3125-14.914062-33.3125-33.3125c0-18.398437 14.914062-33.3125 33.3125-33.3125s33.3125 14.914063 33.3125 33.3125zm0 0" fill="#a0634a"/><path d="m345.882812 265.082031c0 18.398438-14.917968 33.3125-33.316406 33.3125-18.398437 0-33.3125-14.914062-33.3125-33.3125 0-18.398437 14.914063-33.3125 33.3125-33.3125 18.398438 0 33.316406 14.914063 33.316406 33.3125zm0 0" fill="#a0634a"/><g fill="#915039"><path d="m262.074219 301.730469c-3.09375-1.210938-6.460938-1.878907-9.984375-1.878907-15.171875 0-27.46875 12.296876-27.46875 27.46875 0 19.375 19.511718 32.601563 37.457031 25.589844-23.277344-9.085937-23.25-42.101562-.003906-51.179687zm0 0"/><path d="m477.058594 301.730469c-3.097656-1.210938-6.460938-1.878907-9.988282-1.878907-15.171874 0-27.46875 12.296876-27.46875 27.46875 0 19.375 19.511719 32.601563 37.457032 25.589844-23.277344-9.085937-23.25-42.101562 0-51.179687zm0 0"/><path d="m416.582031 233.292969c-3.15625-.988281-6.507812-1.523438-9.988281-1.523438-18.398438 0-33.3125 14.914063-33.3125 33.3125 0 18.398438 14.914062 33.3125 33.3125 33.3125 3.480469 0 6.835938-.535156 9.988281-1.523437-31.035156-9.738282-30.976562-53.859375 0-63.578125zm0 0"/><path d="m299.226562 265.082031c0-14.917969 9.804688-27.546875 23.328126-31.789062-3.15625-.988281-6.507813-1.523438-9.988282-1.523438-18.398437 0-33.3125 14.914063-33.3125 33.3125 0 18.398438 14.914063 33.3125 33.3125 33.3125 3.480469 0 6.832032-.535156 9.988282-1.523437-13.519532-4.242188-23.328126-16.867188-23.328126-31.789063zm0 0"/></g><path d="m54.90625 95.492188c0 15.164062-12.289062 27.453124-27.453125 27.453124-15.160156 0-27.453125-12.289062-27.453125-27.453124 0-15.160157 12.292969-27.453126 27.453125-27.453126 15.164063 0 27.453125 12.292969 27.453125 27.453126zm0 0" fill="#a0634a"/><path d="m269.753906 95.492188c0 15.164062-12.289062 27.453124-27.453125 27.453124-15.160156 0-27.453125-12.289062-27.453125-27.453124 0-15.160157 12.292969-27.453126 27.453125-27.453126 15.164063 0 27.453125 12.292969 27.453125 27.453126zm0 0" fill="#a0634a"/><path d="m219.15625 149.523438c-21.195312-36.714844-60.898438-63.710938-97.492188-55.726563-26.414062 5.238281-53.484374 25.273437-71.066406 55.726563-27.523437 47.675781-21.371094 102.757812 13.742188 123.03125 16.90625 9.761718 37.4375 9.667968 57.257812 1.632812 8.5-3.445312 18.058594-3.445312 26.558594 0 70.347656 28.515625 114.660156-49.042969 71-124.664062zm0 0" fill="#a0634a"/><path d="m84.300781 272.554688c-35.117187-20.273438-41.269531-75.355469-13.742187-123.03125 16.214844-28.082032 43.304687-51.375 74.296875-56.335938-35.730469-5.703125-73.558594 20.492188-94.253907 56.335938-27.527343 47.675781-21.375 102.757812 13.738282 123.03125 11.726562 6.769531 25.199218 8.796874 38.96875 6.722656-6.660156-1.078125-13.058594-3.289063-19.007813-6.722656zm0 0" fill="#915039"/><path d="m126.503906 162.019531c-16.742187 3.320313-33.894531 16.019531-45.035156 35.316407-17.445312 30.214843-13.542969 65.121093 8.707031 77.96875 3.636719 2.097656 7.542969 3.460937 11.597657 4.167968 6.582031-.84375 13.242187-2.617187 19.828124-5.285156 8.496094-3.445312 18.054688-3.445312 26.554688 0 6.582031 2.667969 13.242188 4.441406 19.824219 5.285156 31.214843-5.445312 40.960937-46.359375 20.304687-82.136718-13.433594-23.269532-38.59375-40.375-61.78125-35.316407zm0 0" fill="#915039"/><path d="m110.136719 275.304688c-39.378907-22.738282-15.234375-101.394532 34.863281-112.945313-6.136719-1.453125-12.382812-1.675781-18.496094-.339844-16.742187 3.320313-33.894531 16.019531-45.035156 35.316407-17.445312 30.214843-13.542969 65.121093 8.707031 77.96875 3.636719 2.097656 7.542969 3.460937 11.597657 4.167968 3.894531-.5 7.816406-1.332031 11.730468-2.472656-1.144531-.503906-2.269531-1.0625-3.367187-1.695312zm0 0" fill="#7f4330"/><path d="m215.152344 33.292969c0 18.386719-14.902344 33.292969-33.292969 33.292969-18.386719 0-33.292969-14.90625-33.292969-33.292969s14.90625-33.292969 33.292969-33.292969c18.390625 0 33.292969 14.90625 33.292969 33.292969zm0 0" fill="#a0634a"/><path d="m121.1875 33.292969c0 18.386719-14.90625 33.292969-33.292969 33.292969s-33.292969-14.90625-33.292969-33.292969 14.90625-33.292969 33.292969-33.292969 33.292969 14.90625 33.292969 33.292969zm0 0" fill="#a0634a"/><path d="m19.957031 95.492188c0-11.640626 7.25-21.582032 17.476563-25.574219-17.96875-7.019531-37.433594 6.253906-37.433594 25.574219 0 15.164062 12.292969 27.453124 27.453125 27.453124 3.523437 0 6.886719-.667968 9.980469-1.878906-10.226563-3.992187-17.476563-13.933594-17.476563-25.574218zm0 0" fill="#915039"/><path d="m234.804688 95.492188c0-11.640626 7.25-21.582032 17.476562-25.574219-3.09375-1.207031-6.457031-1.878907-9.980469-1.878907-15.160156 0-27.453125 12.289063-27.453125 27.453126 0 15.160156 12.292969 27.453124 27.453125 27.453124 3.523438 0 6.886719-.667968 9.980469-1.878906-10.226562-3.992187-17.476562-13.933594-17.476562-25.574218zm0 0" fill="#915039"/><path d="m191.839844 1.523438c-3.148438-.988282-6.5-1.523438-9.980469-1.523438-18.386719 0-33.292969 14.90625-33.292969 33.292969s14.90625 33.292969 33.292969 33.292969c3.480469 0 6.828125-.535157 9.980469-1.523438-31.015625-9.734375-30.953125-53.824219 0-63.539062zm0 0" fill="#915039"/><path d="m97.875 1.523438c-3.152344-.988282-6.503906-1.523438-9.980469-1.523438-18.386719 0-33.292969 14.90625-33.292969 33.292969s14.90625 33.292969 33.292969 33.292969c3.476563 0 6.828125-.535157 9.980469-1.523438-31.015625-9.734375-30.957031-53.824219 0-63.539062zm0 0" fill="#915039"/></svg>