<svg height="511pt" viewBox="-86 0 511 511.998" width="511pt" xmlns="http://www.w3.org/2000/svg"><path d="m157.011719 110.386719c29.460937 0 29.039062-.421875 32.582031 1.40625v-88.027344c0-9.039063-7.394531-16.433594-16.433594-16.433594h-5.476562c-9.039063 0-16.433594 7.394531-16.433594 16.433594v88.027344c1.730469-.890625 3.6875-1.40625 5.761719-1.40625zm0 0" fill="#e4e3e1"/><path d="m171.523438 23.765625c0-6.378906 3.691406-11.925781 9.035156-14.644531-2.230469-1.136719-4.738282-1.789063-7.398438-1.789063h-5.476562c-9.039063 0-16.433594 7.394531-16.433594 16.433594v88.027344c1.730469-.894531 3.6875-1.410157 5.757812-1.410157 5.980469 0 10.714844-.015624 14.515626-.027343zm0 0" fill="#d1d0cf"/><path d="m277.945312 347.085938v-91.890626c0-22.3125-6.617187-43.058593-17.96875-60.335937-21.617187 5.515625-48.757812-1.441406-69.28125-11.507813-4.070312 2.6875-4.558593 2.074219-33.6875 2.074219-2.527343 0-4.882812-.769531-6.863281-2.074219-20.652343 10.128907-47.753906 17-69.28125 11.507813-11.351562 17.277344-17.96875 38.023437-17.96875 60.335937v91.890626c0 40.609374-18.542969 63.910156-31.625 83.363281h278.300781c-12.734374-18.9375-31.625-42.46875-31.625-83.363281zm0 0" fill="#ffe183"/><path d="m83.171875 255.195312c0-21.503906 6.160156-41.539062 16.761719-58.429687-6.617188.195313-13.058594-.371094-19.070313-1.90625-11.347656 17.277344-17.96875 38.023437-17.96875 60.335937v91.890626c0 40.609374-18.539062 63.910156-31.625 83.363281h20.277344c13.082031-19.453125 31.625-42.753907 31.625-83.363281zm0 0" fill="#ffc964"/><path d="m31.269531 430.449219h278.300781c-11.808593-17.5625-18.808593-26.574219-24.871093-43.8125h-228.558594c-6.078125 17.28125-13.105469 26.320312-24.871094 43.8125zm0 0" fill="#ffc964"/><path d="m56.167969 386.636719c-.335938.933593-.683594 1.851562-1.039063 2.761719-3.964844 10.523437-8.410156 18.054687-14.324218 26.953124-3.257813 4.984376-6.519532 9.613282-9.5 14.042969-.011719.019531-.023438.035157-.035157.054688h20.273438c8.109375-12.058594 18.3125-25.597657 24.902343-43.8125zm0 0" fill="#f3a334"/><path d="m170.421875 504.332031c24.011719 0 38.679687-26.222656 26.492187-46.632812h-52.988281c-12.199219 20.429687 2.515625 46.632812 26.496094 46.632812zm0 0" fill="#f3a334"/><path d="m163.925781 457.699219h-20c-12.1875 20.40625 2.488281 46.632812 26.496094 46.632812 3.5 0 6.863281-.59375 10-1.667969-18.570313-6.363281-26.488281-28.226562-16.496094-44.964843zm0 0" fill="#ee911c"/><path d="m320.113281 429.101562h-299.386719c-6.957031 0-12.648437 5.691407-12.648437 12.648438v4.214844c0 6.957031 5.691406 12.652344 12.648437 12.652344h299.386719c6.957031 0 12.648438-5.695313 12.648438-12.652344v-4.214844c0-6.957031-5.691407-12.648438-12.648438-12.648438zm0 0" fill="#f3a334"/><path d="m320.113281 438.617188h-299.386719c-3.976562 0-7.535156-1.867188-9.855468-4.761719-1.742188 2.171875-2.792969 4.914062-2.792969 7.894531v4.21875c0 6.957031 5.691406 12.648438 12.648437 12.648438h299.386719c6.957031 0 12.648438-5.691407 12.648438-12.648438v-4.21875c0-2.980469-1.050781-5.722656-2.789063-7.894531-2.324218 2.894531-5.882812 4.761719-9.859375 4.761719zm0 0" fill="#ee911c"/><path d="m144.359375 174.742188v-54.707032c0-3.988281 1.878906-7.554687 4.789063-9.878906-42.816407-20.304688-85.84375-15.6875-90.890626 8.929688-1.320312 6.4375.128907 13.507812 3.804688 20.65625 2.539062 4.929687 2.539062 11.5625 0 16.492187-3.679688 7.148437-5.125 14.21875-3.804688 20.65625 5.082032 24.800781 48.769532 29.316406 91.886719 8.453125-3.472656-2.261719-5.785156-6.171875-5.785156-10.601562zm0 0" fill="#f45858"/><path d="m78.257812 176.890625c-1.320312-6.4375.128907-13.511719 3.804688-20.65625 2.539062-4.933594 2.539062-11.5625 0-16.496094-3.675781-7.144531-5.125-14.21875-3.804688-20.652343 2.429688-11.863282 13.691407-19.0625 29.484376-21.089844-25.839844-2.839844-46.121094 4.664062-49.484376 21.089844-1.320312 6.4375.125 13.507812 3.804688 20.652343 2.539062 4.933594 2.539062 11.5625 0 16.496094-3.679688 7.148437-5.125 14.21875-3.804688 20.65625 3.363282 16.421875 23.664063 23.941406 49.515626 21.09375-15.808594-2.023437-27.085938-9.230469-29.515626-21.09375zm0 0" fill="#e84949"/><path d="m278.78125 139.738281c3.675781-7.144531 5.125-14.21875 3.804688-20.652343-5.027344-24.53125-47.910157-29.3125-90.890626-8.929688 2.910157 2.324219 4.785157 5.890625 4.785157 9.878906v54.707032c0 4.429687-2.3125 8.339843-5.785157 10.601562 43.027344 20.816406 86.796876 16.40625 91.890626-8.453125 1.316406-6.4375-.128907-13.511719-3.804688-20.65625-2.539062-4.933594-2.539062-11.5625 0-16.496094zm0 0" fill="#f45858"/><path d="m183.984375 107.386719h-27.128906c-7.039063 0-12.796875 5.691406-12.796875 12.648437v54.707032c0 6.957031 5.757812 12.648437 12.796875 12.648437h27.128906c7.039063 0 12.796875-5.691406 12.796875-12.648437v-54.707032c0-6.957031-5.757812-12.648437-12.796875-12.648437zm0 0" fill="#e84949"/><path d="m164.335938 174.742188v-54.707032c0-6.957031 5.757812-12.648437 12.792968-12.648437h-20.277344c-7.035156 0-12.792968 5.691406-12.792968 12.648437v54.707032c0 6.957031 5.757812 12.648437 12.792968 12.648437h20.277344c-7.035156 0-12.792968-5.691406-12.792968-12.648437zm0 0" fill="#dd4040"/><path d="m55.316406 347.03125c0 33.023438-12.523437 52.105469-28.078125 74.734375h-6.589843c-11.109376 0-20.148438 9.042969-20.148438 20.152344v4.214843c0 11.113282 9.039062 20.152344 20.148438 20.152344h112.820312c-5.09375 23.574219 12.933594 45.710938 36.875 45.710938 23.878906 0 41.976562-22.082032 36.871094-45.710938h112.820312c11.109375 0 20.152344-9.039062 20.152344-20.152344v-4.214843c0-11.109375-9.042969-20.152344-20.152344-20.152344h-6.585937c-31.054688-45.195313-28.082031-54.53125-28.082031-111.863281 0-4.144532-3.355469-7.503906-7.5-7.503906-4.144532 0-7.5 3.359374-7.5 7.503906 0 39.707031-.917969 50.105468 4.027343 68.644531h-86.550781c-4.144531 0-7.5 3.359375-7.5 7.5 0 4.144531 3.355469 7.5 7.5 7.5h91.601562c4.351563 10.832031 9.207032 18.527344 15.761719 28.21875h-249.742187c6.527344-9.644531 11.371094-17.246094 15.777344-28.21875h91.597656c4.144531 0 7.5-3.355469 7.5-7.5 0-4.140625-3.355469-7.5-7.5-7.5h-86.488282c5.109376-19.28125 3.964844-24.289063 3.964844-122.164063 0-18.121093 4.84375-35.695312 14.042969-51.128906 21.183594 3.488282 46.160156-2.53125 65.648437-11.429687 4.875 1.804687 7.621094 1.238281 33.746094 1.238281 2.203125 0 4.707032-.417969 6.921875-1.238281 19.609375 8.941406 44.40625 14.886719 65.648438 11.429687 15.855469 26.597656 14.042969 48.550782 14.042969 69.644532 0 4.144531 3.355468 7.5 7.5 7.5 4.144531 0 7.5-3.355469 7.5-7.5 0-21.007813 1.863281-44.808594-14.289063-74.042969.285156-.132813.582031-.25.863281-.386719 9.773438-4.828125 15.964844-12.402344 17.914063-21.902344 1.617187-7.898437.066406-16.75-4.484375-25.59375-1.4375-2.792968-1.4375-6.84375 0-9.632812 20.746094-40.316406-23.324219-69.617188-88.355469-43.554688v-75.851562c-.003906-13.195313-10.738281-23.933594-23.933594-23.933594h-5.480469c-13.195312 0-23.933593 10.738281-23.933593 23.933594v75.851562c-65.449219-26.230468-108.964844 3.511719-88.355469 43.554688 1.4375 2.789062 1.4375 6.839844 0 9.628906-9.964844 19.363281-5.246094 38.265625 13.4375 47.496094.277344.136718.574219.253906.855469.386718-9.363281 16.949219-14.289063 35.960938-14.289063 55.53125zm115.023438 149.96875c-15.777344 0-26.871094-15.816406-21.289063-30.714844h42.582031c5.582032 14.894532-5.511718 30.714844-21.292968 30.714844zm149.695312-60.230469c2.789063 0 5.148438 2.355469 5.148438 5.148438v4.214843c0 2.792969-2.359375 5.152344-5.148438 5.152344-16.992187 0-283.273437 0-299.386718 0-2.789063 0-5.148438-2.359375-5.148438-5.152344v-4.214843c0-2.792969 2.359375-5.148438 5.148438-5.148438zm-116.132812-261.859375v-29.953125c4.789062-2.085937 13.835937-5.246093 24.722656-5.246093 4.144531 0 7.5-3.359376 7.5-7.5 0-4.140626-3.355469-7.5-7.5-7.5-9.839844 0-18.40625 2.027343-24.722656 4.175781v-8.683594c0-2.285156-.476563-4.773437-1.105469-6.589844 40.890625-16.410156 85.640625-9.015625 69.234375 22.863281-3.648438 7.09375-3.652344 16.265626 0 23.359376 11.59375 22.53125-7.371094 32.453124-32.472656 31.335937-12.667969-.621094-25.902344-4.175781-37.148438-8.664063 1.019532-2.496093 1.492188-5.222656 1.492188-7.597656zm-45.230469-150.976562c0-4.925782 4.007813-8.933594 8.929687-8.933594h5.480469c4.921875 0 8.929688 4.007812 8.929688 8.933594v76.121094h-23.339844zm-6.890625 96.269531c0-2.859375 2.457031-5.148437 5.148438-5.148437h25.265624c1.238282.027343 5.738282-.324219 6.605469 4.179687.0625.316406.101563.640625.101563.96875v54.707031c0 2.839844-2.421875 5.148438-5.148438 5.148438h-26.820312c-2.734375 0-5.152344-2.3125-5.152344-5.148438zm-83.128906 39.632813c3.652344-7.097657 3.648437-16.265626 0-23.359376-16.285156-31.644531 27.800781-39.488281 69.234375-22.863281-.660157 1.902344-1.105469 4.359375-1.105469 6.589844v8.683594c-6.316406-2.148438-14.882812-4.175781-24.722656-4.175781-4.144532 0-7.5 3.359374-7.5 7.5 0 4.140624 3.355468 7.5 7.5 7.5 10.886718 0 19.929687 3.160156 24.722656 5.246093v29.953125c0 2.636719.589844 5.394532 1.492188 7.597656-18.179688 7.253907-45.417969 13.140626-62.878907 4.511719-11.601562-5.734375-12.507812-15.984375-6.742187-27.183593zm0 0"/></svg>