<svg viewBox="-40 0 511 512" xmlns="http://www.w3.org/2000/svg"><path d="m368.949219 143.550781c-29.644531-29.648437-66.402344-49.597656-106.421875-58.277343 5.664062-8.664063 8.972656-19.003907 8.972656-30.105469 0-30.421875-24.746094-55.167969-55.167969-55.167969-30.417969 0-55.167969 24.746094-55.167969 55.167969 0 11.101562 3.308594 21.4375 8.976563 30.101562-40.019531 8.683594-76.777344 28.632813-106.425781 58.277344-40.765625 40.765625-63.214844 94.96875-63.214844 152.617187 0 57.652344 22.449219 111.855469 63.214844 152.617188 40.765625 40.765625 94.96875 63.21875 152.617187 63.21875 57.652344 0 111.851563-22.449219 152.617188-63.214844s63.214843-94.96875 63.214843-152.621094c0-57.648437-22.449218-111.851562-63.214843-152.613281zm-177.785157-88.382812c0-13.878907 11.292969-25.167969 25.167969-25.167969 13.878907 0 25.167969 11.289062 25.167969 25.167969 0 13.875-11.289062 25.164062-25.167969 25.164062-13.875 0-25.167969-11.289062-25.167969-25.164062zm0 0" fill="#fcdb2c"/><path d="m368.949219 143.550781c-29.644531-29.648437-66.402344-49.597656-106.421875-58.277343 5.664062-8.664063 8.972656-19.003907 8.972656-30.105469 0-30.421875-24.746094-55.167969-55.167969-55.167969v30c13.878907 0 25.167969 11.289062 25.167969 25.167969 0 13.875-11.289062 25.164062-25.167969 25.164062v431.667969c57.652344 0 111.851563-22.449219 152.617188-63.214844s63.214843-94.96875 63.214843-152.621094c0-57.648437-22.449218-111.851562-63.214843-152.613281zm0 0" fill="#ff9f04"/><g fill="#ca6d36"><path d="m216.332031 267.824219c-45.460937 0-82.445312 36.984375-82.445312 82.445312 0 8.03125 2.320312 15.828125 6.71875 22.554688 7.65625 11.695312 20.558593 18.675781 34.507812 18.675781 10.140625 0 17.964844-2.320312 24.871094-4.363281 5.667969-1.679688 10.5625-3.128907 16.347656-3.128907 5.789063 0 10.683594 1.449219 16.347657 3.128907 6.902343 2.042969 14.730468 4.363281 24.867187 4.363281 13.957031 0 26.863281-6.984375 34.515625-18.683594 4.394531-6.710937 6.714844-14.511718 6.714844-22.546875 0-45.460937-36.984375-82.445312-82.445313-82.445312zm0 0"/><path d="m149.382812 254.042969c-3.941406 0-7.8125-1.601563-10.601562-4.402344-2.789062-2.789063-4.390625-6.648437-4.390625-10.597656s1.601563-7.820313 4.390625-10.609375c2.789062-2.792969 6.660156-4.390625 10.601562-4.390625 3.957032 0 7.816407 1.597656 10.609376 4.390625 2.789062 2.800781 4.398437 6.660156 4.398437 10.609375s-1.609375 7.808593-4.398437 10.597656c-2.792969 2.800781-6.660157 4.402344-10.609376 4.402344zm0 0"/><path d="m193.121094 230.832031c-3.949219 0-7.808594-1.601562-10.601563-4.390625-2.789062-2.789062-4.398437-6.660156-4.398437-10.609375s1.609375-7.820312 4.398437-10.601562c2.792969-2.800781 6.652344-4.398438 10.601563-4.398438 3.949218 0 7.820312 1.601563 10.609375 4.398438 2.789062 2.792969 4.402343 6.652343 4.402343 10.601562s-1.613281 7.808594-4.402343 10.609375c-2.789063 2.789063-6.660157 4.390625-10.609375 4.390625zm0 0"/></g><path d="m239.539062 230.832031c-3.949218 0-7.820312-1.601562-10.609374-4.390625-2.789063-2.800781-4.390626-6.660156-4.390626-10.609375s1.601563-7.808593 4.390626-10.601562c2.789062-2.800781 6.660156-4.398438 10.609374-4.398438 3.953126 0 7.8125 1.601563 10.609376 4.398438 2.792968 2.78125 4.390624 6.652343 4.390624 10.601562s-1.597656 7.820313-4.390624 10.609375c-2.796876 2.789063-6.65625 4.390625-10.609376 4.390625zm0 0" fill="#b24d00"/><path d="m283.28125 254.042969c-3.949219 0-7.820312-1.601563-10.609375-4.402344-2.789063-2.789063-4.390625-6.648437-4.390625-10.597656s1.601562-7.8125 4.390625-10.609375c2.789063-2.792969 6.648437-4.390625 10.609375-4.390625 3.949219 0 7.808594 1.597656 10.601562 4.390625 2.800782 2.789062 4.398438 6.660156 4.398438 10.609375s-1.601562 7.808593-4.398438 10.597656c-2.792968 2.800781-6.664062 4.402344-10.601562 4.402344zm0 0" fill="#b24d00"/><path d="m216.332031 267.824219v116.183593c5.789063 0 10.683594 1.449219 16.347657 3.128907 6.902343 2.042969 14.730468 4.363281 24.867187 4.363281 13.957031 0 26.863281-6.984375 34.515625-18.683594 4.394531-6.710937 6.714844-14.511718 6.714844-22.546875 0-45.460937-36.984375-82.445312-82.445313-82.445312zm0 0" fill="#b24d00"/></svg>