<svg height="512pt" viewBox="0 -32 512.00058 512" width="512pt" xmlns="http://www.w3.org/2000/svg"><g fill="#b4d241"><path d="m331.363281 447.480469c-10.820312 0-21.542969-2.246094-31.664062-6.699219-39.242188-17.257812-84.207031-17.40625-123.546875-.449219l-1.019532.453125c-15.632812 6.871094-32.695312 8.492188-49.339843 4.6875-16.644531-3.800781-31.304688-12.671875-42.40625-25.644531-11.089844-12.980469-17.570313-28.84375-18.738281-45.871094-1.167969-17.03125 3.082031-33.628906 12.292968-48l55.515625-86.601562c23.035157-35.945313 62.277344-57.402344 104.960938-57.402344 42.6875 0 81.925781 21.457031 104.964843 57.402344l55.515626 86.601562c9.210937 14.375 13.460937 30.972657 12.289062 48.007813-1.171875 17.03125-7.652344 32.894531-18.75 45.871094-11.101562 12.976562-25.765625 21.84375-42.410156 25.644531-5.863282 1.335937-11.777344 2-17.664063 2zm-93.957031-49.761719c25.375 0 50.742188 5.195312 74.375 15.589844 19.882812 8.742187 42.726562 3.523437 56.847656-12.984375 14.113282-16.503907 15.722656-39.886719 4-58.175781l-55.515625-86.601563c-17.492187-27.289063-47.285156-43.582031-79.695312-43.582031-32.410157 0-62.203125 16.292968-79.691407 43.582031l-55.519531 86.605469c-11.71875 18.28125-10.113281 41.660156 3.992188 58.171875 13.964843 16.324219 36.472656 21.609375 56.203125 13.261719l.671875-.296876c23.617187-10.378906 48.980469-15.570312 74.332031-15.570312zm0 0"/><path d="m71.21875 243.070312c-27.246094 0-54.195312-18.917968-65.75-48.886718-14.464844-37.652344.757812-78.644532 33.929688-91.402344 16.492187-6.351562 34.71875-4.882812 51.316406 4.136719 15.792968 8.585937 28.269531 23.121093 35.128906 40.921875 6.855469 17.8125 7.347656 36.960937 1.382812 53.921875-6.269531 17.820312-18.816406 31.128906-35.332031 37.476562-6.742187 2.597657-13.71875 3.832031-20.675781 3.832031zm-10.992188-114.125c-3.457031 0-6.839843.613282-10.046874 1.847657-17.738282 6.820312-25.226563 30.421875-16.699219 52.609375 8.546875 22.167968 29.917969 34.660156 47.632812 27.828125l.015625-.003907c8.167969-3.140624 14.484375-10.035156 17.785156-19.421874 3.597657-10.238282 3.21875-22.019532-1.078124-33.175782-4.296876-11.152344-11.917969-20.15625-21.457032-25.339844-5.304687-2.882812-10.816406-4.34375-16.152344-4.34375zm0 0"/><path d="m199.613281 171.386719c-41.464843 0-75.199219-38.4375-75.199219-85.683594 0-47.257813 33.734376-85.703125 75.199219-85.703125 41.46875 0 75.207031 38.445312 75.207031 85.703125 0 47.246094-33.738281 85.683594-75.207031 85.683594zm0-141.375c-24.917969 0-45.1875 24.984375-45.1875 55.691406 0 30.699219 20.269531 55.671875 45.1875 55.671875s45.195313-24.972656 45.195313-55.671875c0-30.707031-20.277344-55.691406-45.195313-55.691406zm0 0"/><path d="m348.867188 195.566406c-6.480469 0-12.988282-1.007812-19.367188-3.128906h-.003906c-36.136719-12.015625-54.429688-55.210938-40.777344-96.285156 6.464844-19.472656 19.128906-35.710938 35.65625-45.71875 17.300781-10.480469 36.71875-12.964844 54.664062-7 17.945313 5.964844 32.003907 19.574218 39.589844 38.320312 7.25 17.910156 7.675782 38.5 1.199219 57.972656-11.246094 33.828126-40.71875 55.839844-70.960937 55.839844zm-9.902344-31.609375c20.449218 6.792969 43.949218-8.324219 52.382812-33.699219 4.230469-12.714843 4.035156-25.941406-.539062-37.246093-4.234375-10.460938-11.777344-17.953125-21.234375-21.101563-9.464844-3.144531-19.996094-1.652344-29.652344 4.191406-10.429687 6.316407-18.5 16.800782-22.722656 29.511719-8.433594 25.375 1.332031 51.546875 21.765625 58.34375zm0 0"/><path d="m436.171875 311.363281c-12.59375 0-24.898437-3.6875-35.3125-11.402343-28.554687-21.136719-32.300781-64.703126-8.34375-97.113282 23.980469-32.390625 66.75-41.546875 95.347656-20.421875l.011719.011719c28.558594 21.148438 32.300781 64.714844 8.347656 97.121094-15.265625 20.601562-38.101562 31.804687-60.050781 31.804687zm16.207031-110.402343c-12.632812 0-26.347656 7.054687-35.734375 19.734374-14.117187 19.101563-13.191406 43.84375 2.078125 55.144532 15.273438 11.316406 39.214844 4.976562 53.375-14.132813 14.109375-19.089843 13.1875-43.828125-2.070312-55.140625-5.140625-3.796875-11.257813-5.605468-17.648438-5.605468zm0 0"/></g></svg>