<svg height="512pt" viewBox="-33 0 512 512" width="512pt" xmlns="http://www.w3.org/2000/svg"><path d="m320.75 512 62.90625-57.234375v-339.796875zm0 0" fill="#d1d0cf"/><path d="m446.5625 512-62.90625-57.234375v-339.796875zm0 0" fill="#e4e3e1"/><path d="m320.75 512h125.8125l-62.90625-57.234375zm0 0" fill="#afafaf"/><path d="m371.539062 0h-300.09375c-6.125 0-11.085937 4.964844-11.085937 11.085938v31.640624h323.296875v-30.609374c0-6.691407-5.425781-12.117188-12.117188-12.117188zm0 0" fill="#72bdf6"/><path d="m92.050781 0h-20.605469c-6.125 0-11.085937 4.964844-11.085937 11.085938v31.640624h20.605469v-31.640624c0-6.121094 4.960937-11.085938 11.085937-11.085938zm0 0" fill="#4b98d4"/><path d="m60.359375 42.726562v72.242188l-60.171875 379.769531c-1.4375 9.0625 5.566406 17.261719 14.742188 17.261719h307.878906l60.847656-397.03125v-72.242188zm0 0" fill="#4b98d4"/><path d="m20.792969 494.738281 60.167969-379.769531v-72.242188h-20.601563v72.242188l-60.171875 379.769531c-1.4375 9.0625 5.566406 17.261719 14.742188 17.261719h20.605468c-9.175781 0-16.179687-8.199219-14.742187-17.261719zm0 0" fill="#2472b2"/><path d="m316.171875 93.054688h-196.96875c-4.269531 0-7.730469-3.460938-7.730469-7.726563 0-4.269531 3.460938-7.726563 7.730469-7.726563h196.96875c4.265625 0 7.726563 3.457032 7.726563 7.726563 0 4.265625-3.457032 7.726563-7.726563 7.726563zm0 0" fill="#2472b2"/><path d="m169.074219 484.421875h-18.269531c-4.265626 0-7.726563-3.460937-7.726563-7.730469 0-4.265625 3.460937-7.726562 7.726563-7.726562h18.269531c4.265625 0 7.726562 3.460937 7.726562 7.726562 0 4.269532-3.460937 7.730469-7.726562 7.730469zm0 0" fill="#2472b2"/><path d="m309.800781 207.78125h-213.628906c-3.292969 0-6.09375 2.394531-6.609375 5.644531l-34.074219 221.078125c-.644531 4.0625 2.5 7.738282 6.613281 7.738282h213.628907c3.292969 0 6.09375-2.394532 6.609375-5.644532l34.074218-221.078125c.640626-4.0625-2.5-7.738281-6.613281-7.738281zm0 0" fill="#ffc964"/><path d="m76.09375 434.503906 34.074219-221.078125c.511719-3.25 3.316406-5.648437 6.609375-5.648437h-20.605469c-3.292969 0-6.09375 2.398437-6.609375 5.648437l-34.074219 221.078125c-.644531 4.0625 2.5 7.738282 6.613281 7.738282h20.605469c-4.117187 0-7.257812-3.675782-6.613281-7.738282zm0 0" fill="#f3a334"/><g fill="#a0634a"><path d="m140.734375 301.394531c0 8.320313-6.746094 15.066407-15.0625 15.066407-8.320313 0-15.066406-6.746094-15.066406-15.066407 0-8.320312 6.746093-15.0625 15.066406-15.0625 8.316406 0 15.0625 6.742188 15.0625 15.0625zm0 0"/><path d="m258.617188 301.394531c0 8.320313-6.742188 15.066407-15.0625 15.066407-8.320313 0-15.0625-6.746094-15.0625-15.066407 0-8.320312 6.742187-15.0625 15.0625-15.0625 8.320312 0 15.0625 6.742188 15.0625 15.0625zm0 0"/><path d="m230.855469 331.039062c-11.933594-20.667968-33.828125-34.867187-53.492188-30.574218-43.832031 8.691406-66.132812 78.058594-31.453125 98.082031 9.273438 5.355469 20.542969 5.304687 31.417969.894531 4.664063-1.890625 9.90625-1.890625 14.570313 0 10.875 4.410156 22.140624 4.460938 31.417968-.894531 19.265625-11.125 22.640625-41.347656 7.539063-67.507813zm0 0"/><path d="m228.660156 267.265625c0 10.089844-8.179687 18.269531-18.269531 18.269531-10.085937 0-18.265625-8.179687-18.265625-18.269531 0-10.085937 8.179688-18.265625 18.265625-18.265625 10.089844 0 18.269531 8.179688 18.269531 18.265625zm0 0"/><path d="m177.101562 267.265625c0 10.089844-8.179687 18.269531-18.269531 18.269531-10.085937 0-18.265625-8.179687-18.265625-18.269531 0-10.085937 8.179688-18.265625 18.265625-18.265625 10.089844 0 18.269531 8.179688 18.269531 18.265625zm0 0"/></g><path d="m130.695312 301.394531c0-4.453125 1.945313-8.445312 5.019532-11.203125-2.667969-2.390625-6.179688-3.859375-10.042969-3.859375-8.320313 0-15.066406 6.742188-15.066406 15.0625 0 8.320313 6.746093 15.066407 15.066406 15.066407 3.863281 0 7.375-1.46875 10.042969-3.863282-3.074219-2.757812-5.019532-6.746094-5.019532-11.203125zm0 0" fill="#915039"/><path d="m248.582031 301.394531c0-4.453125 1.945313-8.445312 5.015625-11.203125-2.664062-2.390625-6.179687-3.859375-10.042968-3.859375-8.320313 0-15.0625 6.742188-15.0625 15.0625 0 8.320313 6.742187 15.066407 15.0625 15.066407 3.863281 0 7.378906-1.46875 10.042968-3.863282-3.070312-2.757812-5.015625-6.746094-5.015625-11.203125zm0 0" fill="#915039"/><path d="m166 398.546875c-33.652344-19.429687-13.835938-86.046875 28.710938-97.441406-5.773438-1.566407-11.65625-1.882813-17.347657-.640625-43.832031 8.695312-66.132812 78.058594-31.453125 98.082031 7.792969 4.5 16.996094 5.171875 26.1875 2.65625-2.105468-.65625-4.148437-1.53125-6.097656-2.65625zm0 0" fill="#915039"/><path d="m212.214844 267.265625c0-6.375 3.269531-11.980469 8.222656-15.25-2.882812-1.902344-6.332031-3.015625-10.046875-3.015625-10.089844 0-18.265625 8.179688-18.265625 18.265625 0 10.089844 8.179688 18.269531 18.265625 18.269531 3.714844 0 7.164063-1.117187 10.046875-3.019531-4.953125-3.265625-8.222656-8.871094-8.222656-15.25zm0 0" fill="#915039"/><path d="m160.65625 267.265625c0-6.375 3.269531-11.980469 8.222656-15.25-2.882812-1.902344-6.332031-3.015625-10.046875-3.015625-10.089843 0-18.265625 8.179688-18.265625 18.265625 0 10.089844 8.175782 18.269531 18.265625 18.269531 3.714844 0 7.164063-1.117187 10.046875-3.019531-4.953125-3.265625-8.222656-8.871094-8.222656-15.25zm0 0" fill="#915039"/></svg>