<svg height="512pt" viewBox="0 0 512 512" width="512pt" xmlns="http://www.w3.org/2000/svg"><path d="m379 452.78125v-73.78125h73.78125c27.070312 0 49.21875-22.148438 49.21875-49.21875v-147.5625c0-27.070312-22.148438-49.21875-49.21875-49.21875h-73.78125v-73.78125c0-27.070312-22.144531-49.21875-49.21875-49.21875h-61.925781c-27.070313 0-49.21875 22.148438-49.21875 49.21875v73.78125h-73.78125c-27.070313 0-49.21875 22.148438-49.21875 49.21875v147.5625c0 27.070312 22.148437 49.21875 49.21875 49.21875h73.78125v73.78125c0 27.070312 22.148437 49.21875 49.21875 49.21875h61.925781c27.074219 0 49.21875-22.148438 49.21875-49.21875zm0 0" fill="#fd4a4a"/><path d="m164.417969 216.578125c0-12.984375 7.226562-24.140625 17.558593-29.007813-3.558593-1.675781-7.484374-2.609374-11.617187-2.609374-16.113281 0-29.175781 14.15625-29.175781 31.617187 0 17.464844 13.0625 31.621094 29.175781 31.621094 4.128906 0 8.058594-.933594 11.617187-2.613281-10.332031-4.863282-17.558593-16.019532-17.558593-29.007813zm0 0" fill="#fff"/><path d="m199.535156 216.578125c0-12.984375-7.226562-24.140625-17.558594-29.007813-10.332031 4.867188-17.558593 16.023438-17.558593 29.007813 0 12.988281 7.226562 24.144531 17.558593 29.007813 10.332032-4.863282 17.558594-16.019532 17.558594-29.007813zm0 0" fill="#ffceac"/><path d="m250.054688 177.054688c0-12.988282 7.230468-24.140626 17.5625-29.007813-3.5625-1.675781-7.488282-2.613281-11.617188-2.613281-16.113281 0-29.175781 14.160156-29.175781 31.621094 0 17.464843 13.0625 31.621093 29.175781 31.621093 4.128906 0 8.054688-.9375 11.617188-2.613281-10.332032-4.867188-17.5625-16.019531-17.5625-29.007812zm0 0" fill="#fff"/><path d="m285.175781 177.054688c0-12.988282-7.226562-24.140626-17.558593-29.007813-10.332032 4.867187-17.5625 16.019531-17.5625 29.007813 0 12.988281 7.230468 24.140624 17.5625 29.007812 10.332031-4.867188 17.558593-16.019531 17.558593-29.007812zm0 0" fill="#ffceac"/><path d="m335.695312 216.578125c0-12.984375 7.226563-24.140625 17.558594-29.007813-3.558594-1.675781-7.484375-2.609374-11.617187-2.609374-16.113281 0-29.175781 14.15625-29.175781 31.617187 0 17.464844 13.0625 31.621094 29.175781 31.621094 4.128906 0 8.058593-.933594 11.617187-2.613281-10.332031-4.863282-17.558594-16.019532-17.558594-29.007813zm0 0" fill="#fff"/><path d="m370.816406 216.578125c0-12.984375-7.230468-24.140625-17.5625-29.007813-10.332031 4.867188-17.558594 16.023438-17.558594 29.007813 0 12.988281 7.226563 24.144531 17.558594 29.007813 10.332032-4.863282 17.5625-16.019532 17.5625-29.007813zm0 0" fill="#ffceac"/><path d="m244.445312 317.082031c0-23.875 14.3125-44.382812 34.785157-53.378906-7.113281-3.125-14.96875-4.871094-23.230469-4.871094-32.039062 0-58.015625 26.078125-58.015625 58.25s25.976563 58.25 58.015625 58.25c8.261719 0 16.117188-1.746093 23.230469-4.871093-20.472657-8.996094-34.785157-29.503907-34.785157-53.378907zm0 0" fill="#fff"/><path d="m314.015625 317.082031c0-23.875-14.3125-44.382812-34.785156-53.378906-20.472657 8.996094-34.78125 29.503906-34.78125 53.378906s14.308593 44.382813 34.78125 53.378907c20.472656-8.996094 34.785156-29.503907 34.785156-53.378907zm0 0" fill="#ffceac"/><path d="m256 248.832031c-37.503906 0-68.015625 30.617188-68.015625 68.25 0 37.632813 30.511719 68.25 68.015625 68.25s68.015625-30.617187 68.015625-68.25c0-37.632812-30.511719-68.25-68.015625-68.25zm0 116.5c-26.476562 0-48.015625-21.644531-48.015625-48.25s21.539063-48.25 48.015625-48.25 48.015625 21.644531 48.015625 48.25-21.539063 48.25-48.015625 48.25zm0 0"/><path d="m256 135.4375c-21.601562 0-39.175781 18.667969-39.175781 41.617188 0 22.949218 17.574219 41.621093 39.175781 41.621093s39.175781-18.667969 39.175781-41.621093c0-22.949219-17.574219-41.617188-39.175781-41.617188zm0 63.238281c-10.574219 0-19.175781-9.699219-19.175781-21.621093 0-11.921876 8.601562-21.621094 19.175781-21.621094s19.175781 9.699218 19.175781 21.621094c0 11.921874-8.601562 21.621093-19.175781 21.621093zm0 0"/><path d="m341.640625 174.960938c-21.605469 0-39.175781 18.667968-39.175781 41.617187s17.570312 41.621094 39.175781 41.621094c21.601563 0 39.175781-18.671875 39.175781-41.621094s-17.578125-41.617187-39.175781-41.617187zm0 63.238281c-10.574219 0-19.175781-9.699219-19.175781-21.621094 0-11.917969 8.601562-21.617187 19.175781-21.617187s19.175781 9.695312 19.175781 21.617187c-.003906 11.921875-8.605468 21.621094-19.175781 21.621094zm0 0"/><path d="m209.535156 216.578125c0-22.945313-17.570312-41.617187-39.175781-41.617187-21.601563 0-39.175781 18.667968-39.175781 41.617187s17.574218 41.621094 39.175781 41.621094c21.605469 0 39.175781-18.671875 39.175781-41.621094zm-39.175781 21.621094c-10.574219 0-19.175781-9.699219-19.175781-21.621094 0-11.917969 8.601562-21.617187 19.175781-21.617187s19.175781 9.695312 19.175781 21.617187-8.601562 21.621094-19.175781 21.621094zm0 0"/><path d="m452.78125 123h-63.78125v-63.78125c0-32.652344-26.5625-59.21875-59.21875-59.21875h-147.5625c-32.65625 0-59.21875 26.566406-59.21875 59.21875v63.78125h-63.78125c-32.652344 0-59.21875 26.5625-59.21875 59.21875v147.5625c0 32.652344 26.566406 59.21875 59.21875 59.21875h63.78125v63.78125c0 32.652344 26.5625 59.21875 59.21875 59.21875h147.5625c32.65625 0 59.21875-26.566406 59.21875-59.21875v-63.78125h63.78125c32.652344 0 59.21875-26.566406 59.21875-59.21875v-147.5625c0-32.65625-26.566406-59.21875-59.21875-59.21875zm39.21875 206.78125c0 21.625-17.59375 39.21875-39.21875 39.21875h-73.78125c-5.523438 0-10 4.476562-10 10v73.78125c0 21.625-17.59375 39.21875-39.21875 39.21875h-147.5625c-21.625 0-39.21875-17.59375-39.21875-39.21875v-73.78125c0-5.523438-4.476562-10-10-10h-73.78125c-21.625 0-39.21875-17.59375-39.21875-39.21875v-147.5625c0-21.625 17.59375-39.21875 39.21875-39.21875h73.78125c5.523438 0 10-4.476562 10-10v-73.78125c0-21.625 17.59375-39.21875 39.21875-39.21875h147.5625c21.625 0 39.21875 17.59375 39.21875 39.21875v73.78125c0 5.523438 4.476562 10 10 10h73.78125c21.625 0 39.21875 17.59375 39.21875 39.21875zm0 0"/><path d="m304 442.78125h-65.953125c-5.523437 0-10 4.480469-10 10 0 5.523438 4.476563 10 10 10h65.953125c5.523438 0 10-4.476562 10-10 0-5.519531-4.476562-10-10-10zm0 0"/><path d="m208.324219 442.78125h-.324219c-5.523438 0-10 4.480469-10 10 0 5.523438 4.476562 10 10 10h.324219c5.523437 0 10-4.476562 10-10 0-5.519531-4.476563-10-10-10zm0 0"/><path d="m303.675781 69.21875h.324219c5.523438 0 10-4.480469 10-10 0-5.523438-4.476562-10-10-10h-.324219c-5.523437 0-10 4.476562-10 10 0 5.519531 4.476563 10 10 10zm0 0"/><path d="m208 69.21875h65.953125c5.523437 0 10-4.480469 10-10 0-5.523438-4.476563-10-10-10h-65.953125c-5.523438 0-10 4.476562-10 10 0 5.519531 4.476562 10 10 10zm0 0"/></svg>